# xmcd
#
# Track frame offsets:
# 150
# 9229
# 24017
# 40996
# 56623
# 71326
# 88432
# 101510
#
# Disc length: 1540 seconds
#
# Revision: 1
# Processed by: cddbd v1.5.2PL0 Copyright (c) Steve Scherf et al.
# Submitted via: CedeCatalogueitor 2.6.0.6 http://personales.ya.com/cdcatalogueitor
#
DISCID=59060208
DTITLE=Varios Artistas - Singles Elefant Diciembre 2008
DYEAR=1900
DGENRE=
TTITLE0=Nick Garrie - Twilight
TTITLE1=Nick Garrie - In Every Nook And Cranny
TTITLE2=Speedmarket Avenue - Don't Fall In Love
TTITLE3=Speedmarket Avenue - Dying In Africa
TTITLE4=Au Revoir Simone - Summer Lines
TTITLE5=Au Revoir Simone - Haunted House
TTITLE6=The Gentle People - Plastic City
TTITLE7=The Gentle People - Naughty Nauga
EXTD=
EXTT0=
EXTT1=
EXTT2=
EXTT3=
EXTT4=
EXTT5=
EXTT6=
EXTT7=
PLAYORDER=
